<svg xmlns="http://www.w3.org/2000/svg" width="36.5" height="36.5" viewBox="0 0 36.5 36.5">
  <rect width="36.5" height="36.5" fill="#E51652"/>
  <g>
    <path fill="#FFFFFF" d="M31.23,13.365c-0.75-1.809-0.309-4.467-1.671-5.83c-1.363-1.361-4.021-0.922-5.829-1.67c-1.746-0.725-3.297-2.94-5.303-2.94c-2.007,0-3.56,2.216-5.304,2.94c-1.809,0.748-4.464,0.309-5.83,1.67c-1.363,1.363-0.921,4.021-1.671,5.83c-0.725,1.746-2.939,3.297-2.939,5.305c0,2.007,2.215,3.558,2.939,5.302c0.75,1.81,0.308,4.466,1.671,5.829c1.365,1.363,4.02,0.924,5.83,1.672c1.745,0.724,3.297,2.94,5.304,2.94c2.006,0,3.557-2.217,5.303-2.94c1.808-0.748,4.466-0.309,5.829-1.672c1.363-1.363,0.922-4.02,1.671-5.829c0.725-1.744,2.94-3.295,2.94-5.302C34.17,16.662,31.955,15.111,31.23,13.365z"/>
    <path fill="#E51652" d="M15.18,25.461l-1.669-1.67c-0.082-0.082-0.082-0.217,0-0.3l2.267-2.304c0.082-0.082,0.216-0.084,0.298-0.002l1.669,1.67c0.082,0.083,0.083,0.215,0.001,0.301l-2.267,2.303C15.396,25.543,15.262,25.543,15.18,25.461z"/>
    <path fill="#E51652" d="M28.666,20.87l-1.425,1.425c-0.082,0.08-0.149,0.15-0.147,0.15c0.001,0.001-0.065,0.069-0.147,0.152l-7.194,7.152c-0.084,0.081-0.217,0.081-0.3-0.001l-1.673-1.674c-0.083-0.082-0.082-0.217,0-0.297l7.195-7.153c0.082-0.081,0.082-0.217,0-0.297l-2.172-2.172l-0.029-0.03l-2.988,3.021c-0.083,0.082-0.217,0.082-0.299,0l-1.669-1.668c-0.082-0.083-0.082-0.217-0.002-0.299l2.989-3.021l-2.185-2.187c-0.083-0.081-0.217-0.081-0.3,0l-7.174,7.175c-0.082,0.082-0.216,0.082-0.298,0l-1.673-1.673c-0.082-0.082-0.082-0.217,0-0.298l7.174-7.174c0.082-0.084,0.082-0.218,0-0.301l-2.39-2.389c-0.083-0.082-0.083-0.217,0-0.301l1.424-1.424c0.082-0.08,0.216-0.08,0.298,0l4.594,4.598c0.004,0,0.004,0.001,0.004,0.001l6.772,6.772l1.612,1.611C28.749,20.652,28.749,20.787,28.666,20.87z"/>
  </g>
</svg>