<svg xmlns="http://www.w3.org/2000/svg" xmlns:xlink="http://www.w3.org/1999/xlink" id="Layer_1" x="0px" y="0px" width="213.297px" height="176.835px" viewBox="0 0 213.297 176.835" xml:space="preserve"><g>			<polyline fill="#F7B9CB" stroke="#2D455A" stroke-width="4" stroke-linecap="round" stroke-linejoin="round" stroke-miterlimit="10" points="  135.592,119.545 141.626,112.145 149.22,102.216 135.007,94.04  "/>			<ellipse transform="matrix(0.8834 0.4685 -0.4685 0.8834 85.475 -13.773)" fill="#F7B9CB" stroke="#2D455A" stroke-width="4" stroke-linecap="round" stroke-linejoin="round" stroke-miterlimit="10" cx="70.421" cy="164.916" rx="12.734" ry="8.97"/>			<path fill="#F7B9CB" stroke="#2D455A" stroke-width="4" stroke-linecap="round" stroke-linejoin="round" stroke-miterlimit="10" d="  M101.841,170.882c2.322,4.375,9.239,5.253,15.453,1.958c6.212-3.294,9.366-9.513,7.048-13.891  c-2.321-4.375-9.241-5.253-15.451-1.958C102.674,160.287,99.521,166.504,101.841,170.882z"/>			<path fill="#F7B9CB" stroke="#2D455A" stroke-width="4" stroke-linecap="round" stroke-linejoin="round" stroke-miterlimit="10" d="  M35.356,86.686c15.817-7.281,32.82-0.936,39.23,12.991l0.031,0.066c6.411,13.929-2.039,30.532-15.971,36.942L2,162.766  C2,162.766,1.875,102.097,35.356,86.686z"/>			<path fill="#FFFFFF" stroke="#2D455A" stroke-width="4" stroke-linecap="round" stroke-linejoin="round" stroke-miterlimit="10" d="  M92.438,67.074c0-14.424-19.289-21.179-34.577-17.004c-5.914,7.395-8.563,16.993-8.563,27.195v47.603  c0,23.87,17.277,43.222,41.148,43.222s42.852-19.352,42.852-43.222V88"/>			<polyline fill="none" stroke="#2D455A" stroke-width="4" stroke-linecap="round" stroke-linejoin="round" stroke-miterlimit="10" points="  101.234,91.294 94.942,97.589 88.198,90.845  "/>			<line fill="none" stroke="#2D455A" stroke-width="4" stroke-linecap="round" stroke-linejoin="round" stroke-miterlimit="10" x1="17.866" y1="155.162" x2="29.287" y2="119.941"/>			<line fill="none" stroke="#2D455A" stroke-width="4" stroke-linecap="round" stroke-linejoin="round" stroke-miterlimit="10" x1="34.015" y1="147.878" x2="41.288" y2="126.244"/>			<path fill="#F7B9CB" stroke="#2D455A" stroke-width="4" stroke-linecap="round" stroke-linejoin="round" stroke-miterlimit="10" d="  M93.179,67.532c0-14.554-19.823-21.424-35.452-17.21c8.097-9.99,21.483-16.574,35.452-16.574c8.812,0,16.81,2.557,23.501,7.053  l3.788,2.819c0,0-25.75,1.983-27.317,24.049"/>			<line fill="#FFFFFF" stroke="#2D455A" stroke-width="4" stroke-linecap="round" stroke-linejoin="round" stroke-miterlimit="10" x1="60.297" y1="113" x2="60.297" y2="119"/>			<line fill="#FFFFFF" stroke="#2D455A" stroke-width="4" stroke-linecap="round" stroke-linejoin="round" stroke-miterlimit="10" x1="80.297" y1="146" x2="80.297" y2="159"/>			<line fill="#FFFFFF" stroke="#2D455A" stroke-width="4" stroke-linecap="round" stroke-linejoin="round" stroke-miterlimit="10" x1="117.297" y1="134" x2="117.297" y2="146"/>			<line fill="#FFFFFF" stroke="#2D455A" stroke-width="4" stroke-linecap="round" stroke-linejoin="round" stroke-miterlimit="10" x1="100.297" y1="123" x2="100.297" y2="134"/>			<line fill="#FFFFFF" stroke="#2D455A" stroke-width="4" stroke-linecap="round" stroke-linejoin="round" stroke-miterlimit="10" x1="70.297" y1="134" x2="70.297" y2="140"/>			<line fill="#FFFFFF" stroke="#2D455A" stroke-width="4" stroke-linecap="round" stroke-linejoin="round" stroke-miterlimit="10" x1="107.297" y1="146" x2="107.297" y2="152"/>			<line fill="#FFFFFF" stroke="#2D455A" stroke-width="4" stroke-linecap="round" stroke-linejoin="round" stroke-miterlimit="10" x1="99.297" y1="143" x2="99.297" y2="149"/>			<line fill="#FFFFFF" stroke="#2D455A" stroke-width="4" stroke-linecap="round" stroke-linejoin="round" stroke-miterlimit="10" x1="124.297" y1="120" x2="124.297" y2="127"/>			<line fill="#FFFFFF" stroke="#2D455A" stroke-width="4" stroke-linecap="round" stroke-linejoin="round" stroke-miterlimit="10" x1="80.297" y1="117" x2="80.297" y2="123"/>			<line fill="#FFFFFF" stroke="#2D455A" stroke-width="4" stroke-linecap="round" stroke-linejoin="round" stroke-miterlimit="10" x1="110.297" y1="117" x2="110.297" y2="123"/>			<line fill="#FFFFFF" stroke="#2D455A" stroke-width="4" stroke-linecap="round" stroke-linejoin="round" stroke-miterlimit="10" x1="61.297" y1="131" x2="61.297" y2="136"/>	<g>					<circle fill="#F7B9CB" stroke="#2D455A" stroke-width="4" stroke-linecap="round" stroke-linejoin="round" stroke-miterlimit="10" cx="186.668" cy="26.914" r="13.211"/>					<path fill="#FFFFFF" stroke="#2D455A" stroke-width="4" stroke-linecap="round" stroke-linejoin="round" stroke-miterlimit="10" d="   M176.146,47.415c6.087-0.565,10.852-5.769,10.852-12.003c0-6.614-5.361-12.021-11.975-12.021c-1.83,0-3.557,0.402-5.105,1.136   c-2.558-5.438-8.08-9.214-14.487-9.214c-8.837,0-16.001,7.158-16.001,15.995c0,8.269,6.275,15.253,14.324,16.093L176.146,47.415z"/>					<line fill="#FFFFFF" stroke="#2D455A" stroke-width="4" stroke-linecap="round" stroke-linejoin="round" stroke-miterlimit="10" x1="186.297" y1="10" x2="186.297" y2="2"/>					<line fill="#FFFFFF" stroke="#2D455A" stroke-width="4" stroke-linecap="round" stroke-linejoin="round" stroke-miterlimit="10" x1="205.297" y1="28" x2="211.297" y2="28"/>					<line fill="#FFFFFF" stroke="#2D455A" stroke-width="4" stroke-linecap="round" stroke-linejoin="round" stroke-miterlimit="10" x1="200.469" y1="15.297" x2="204.535" y2="11.23"/>					<line fill="#FFFFFF" stroke="#2D455A" stroke-width="4" stroke-linecap="round" stroke-linejoin="round" stroke-miterlimit="10" x1="173.998" y1="14.618" x2="169.935" y2="10.551"/>					<line fill="#FFFFFF" stroke="#2D455A" stroke-width="4" stroke-linecap="round" stroke-linejoin="round" stroke-miterlimit="10" x1="199.79" y1="38.375" x2="203.857" y2="42.44"/>	</g>			<path fill="#F7B9CB" stroke="#2D455A" stroke-width="4" stroke-linecap="round" stroke-linejoin="round" stroke-miterlimit="10" d="  M134.099,82.648l-3.931,3.004l-0.002-0.001l-0.047,0.039l-0.049,0.037l0.002,0.002l-0.021,0.014l-0.019,0.016l-0.002-0.002  l-0.048,0.04l-0.048,0.036l0.001,0.002l-3.828,3.135c21.634,17.169,25.481,51.892,38.998,41.311c0,0,0,0.002,0,0.004  c0.017-0.015,0.031-0.026,0.049-0.042c0.016-0.012,0.03-0.022,0.048-0.036c0,0,0,0,0-0.002c0.006-0.004,0.012-0.008,0.018-0.016  c0.006-0.002,0.013-0.008,0.019-0.014c0,0.002,0.001,0.002,0.001,0.002c0.017-0.013,0.032-0.026,0.047-0.038  c0.018-0.012,0.033-0.024,0.05-0.038h-0.001C178.74,119.38,145.831,107.649,134.099,82.648z"/>			<path fill="#FFFFFF" stroke="#2D455A" stroke-width="4" stroke-linecap="round" stroke-linejoin="round" stroke-miterlimit="10" d="  M143.202,68.962c0,15.197-12.32,27.516-27.517,27.516c-15.197,0-27.067-13.092-27.067-28.288c0-15.197,11.87-26.743,27.067-26.743  C130.882,41.446,143.202,53.765,143.202,68.962z"/>			<circle fill="none" stroke="#2D455A" stroke-width="4" stroke-linecap="round" stroke-linejoin="round" stroke-miterlimit="10" cx="116.594" cy="68.963" r="20.776"/>			<circle fill="#FFFFFF" stroke="#2D455A" stroke-width="4" stroke-linecap="round" stroke-linejoin="round" stroke-miterlimit="10" cx="75.827" cy="72.057" r="11.555"/>			<circle fill="#F7B9CB" stroke="#2D455A" stroke-width="4" stroke-linecap="round" stroke-linejoin="round" stroke-miterlimit="10" cx="80.146" cy="72.056" r="2.802"/>			<circle fill="#F7B9CB" stroke="#2D455A" stroke-width="4" stroke-linecap="round" stroke-linejoin="round" stroke-miterlimit="10" cx="109.695" cy="68.963" r="7.19"/>			<path fill="#F7B9CB" stroke="#2D455A" stroke-width="4" stroke-linecap="round" stroke-linejoin="round" stroke-miterlimit="10" d="  M155.506,103.948c-3.649,2.769-9.458,1.262-12.975-3.369c-3.519-4.633-3.412-10.632,0.237-13.402  c3.648-2.773,9.458-1.265,12.975,3.367C159.261,95.174,159.154,101.175,155.506,103.948z"/>			<path fill="#FCE8EE" stroke="#2D455A" stroke-width="4" stroke-linecap="round" stroke-linejoin="round" stroke-miterlimit="10" d="  M75.827,60.501c-7.579,0-14.856,1.048-17.005-1.102"/></g></svg>