<svg xmlns="http://www.w3.org/2000/svg" xmlns:xlink="http://www.w3.org/1999/xlink" id="Layer_1" x="0px" y="0px" width="225px" height="36.5px" viewBox="0 0 225 36.5" xml:space="preserve"><g>	<g>		<path fill="#E0004D" d="M31.23,13.365c-0.75-1.809-0.309-4.467-1.671-5.83c-1.363-1.361-4.021-0.922-5.829-1.67   c-1.746-0.725-3.297-2.94-5.303-2.94c-2.007,0-3.56,2.216-5.304,2.94c-1.809,0.748-4.464,0.309-5.83,1.67   c-1.363,1.363-0.921,4.021-1.671,5.83c-0.725,1.746-2.939,3.297-2.939,5.305c0,2.007,2.215,3.558,2.939,5.302   c0.75,1.81,0.308,4.466,1.671,5.829c1.365,1.363,4.02,0.924,5.83,1.672c1.745,0.724,3.297,2.94,5.304,2.94   c2.006,0,3.557-2.217,5.303-2.94c1.808-0.748,4.466-0.309,5.829-1.672c1.363-1.363,0.922-4.02,1.671-5.829   c0.725-1.744,2.94-3.295,2.94-5.302C34.17,16.662,31.955,15.111,31.23,13.365z"></path>		<g>			<path fill="#FFFFFF" d="M54.594,3.503h6.082c0.073,0,0.134,0.073,0.134,0.146v0.645c0,0.072-0.061,0.134-0.134,0.134h-2.408    c-0.061,0-0.109,0.062-0.109,0.122v7.407c0,0.073-0.061,0.134-0.146,0.134h-0.767c-0.085,0-0.133-0.061-0.133-0.134V4.549    c0-0.061-0.061-0.122-0.122-0.122h-2.396c-0.085,0-0.146-0.062-0.146-0.134V3.648C54.448,3.576,54.509,3.503,54.594,3.503z"></path>			<path fill="#FFFFFF" d="M61.916,3.503h0.767c0.073,0,0.133,0.061,0.133,0.134v3.077c0,0.062,0.073,0.085,0.11,0.036    c0.426-0.511,1.106-0.766,1.836-0.766c1.338,0,2.092,0.827,2.092,2.359v3.612c0,0.073-0.061,0.134-0.134,0.134h-0.766    c-0.073,0-0.134-0.061-0.134-0.134V8.38c0-1.058-0.523-1.496-1.35-1.496c-0.559,0-1.131,0.231-1.508,0.633    c-0.098,0.085-0.146,0.194-0.146,0.329v4.11c0,0.073-0.061,0.134-0.133,0.134h-0.767c-0.085,0-0.146-0.061-0.146-0.134V3.637    C61.771,3.563,61.831,3.503,61.916,3.503z"></path>			<path fill="#FFFFFF" d="M68.01,8.758c0-1.691,1.107-2.811,2.736-2.811c1.606,0,2.688,1.096,2.688,2.811v0.438    c0,0.085-0.062,0.146-0.146,0.146h-4.147c-0.061,0-0.109,0.048-0.109,0.096c0.012,1.193,0.778,1.91,1.934,1.91    c0.462,0,0.9-0.146,1.241-0.412c0.037-0.038,0.134-0.05,0.183,0.012l0.499,0.425c0.061,0.062,0.061,0.158,0,0.207    c-0.511,0.413-1.192,0.633-1.922,0.633c-1.727,0-2.955-1.156-2.955-2.811V8.758z M69.044,8.525c0,0.062,0.048,0.11,0.109,0.11    h3.138c0.061,0,0.109-0.049,0.109-0.11c-0.073-1.082-0.669-1.714-1.642-1.714C69.749,6.812,69.117,7.443,69.044,8.525z"></path>		</g>		<g>			<path fill="#FFFFFF" d="M41.064,10.364h10.725c0.149,0,0.299,0.149,0.299,0.3v1.755c0,0.172-0.15,0.3-0.299,0.3h-3.832    c-0.107,0-0.214,0.107-0.214,0.236v12.222c0,0.172-0.15,0.3-0.321,0.3H45.41c-0.171,0-0.3-0.128-0.3-0.3V12.955    c0-0.129-0.128-0.236-0.235-0.236h-3.811c-0.192,0-0.321-0.128-0.321-0.3v-1.755C40.743,10.514,40.872,10.364,41.064,10.364z"></path>			<path fill="#FFFFFF" d="M52.58,14.881h1.712c0.128,0,0.257,0.086,0.278,0.193l0.171,0.685c0.022,0.085,0.15,0.128,0.236,0.042    c0.642-0.705,1.52-1.07,2.526-1.07c0.984,0,1.648,0.386,1.948,0.578c0.128,0.107,0.171,0.279,0.085,0.429l-0.899,1.413    c-0.085,0.149-0.257,0.171-0.428,0.085c-0.235-0.128-0.599-0.278-1.091-0.278c-0.728,0-1.413,0.257-1.948,0.75    c-0.171,0.148-0.278,0.428-0.278,0.664v6.806c0,0.172-0.128,0.3-0.299,0.3H52.58c-0.171,0-0.3-0.128-0.3-0.3v-9.996    C52.28,15.01,52.409,14.881,52.58,14.881z"></path>			<path fill="#FFFFFF" d="M59.686,19.654c0-3.061,1.991-4.944,4.346-4.944c1.263,0,2.119,0.429,2.911,1.198    c0.064,0.064,0.193,0.043,0.214-0.043l0.171-0.749c0.042-0.149,0.192-0.235,0.342-0.235h1.669c0.15,0,0.3,0.129,0.3,0.3v9.996    c0,0.172-0.15,0.3-0.3,0.3h-2.033c-0.171,0-0.3-0.128-0.3-0.3v-0.6c0-0.106-0.149-0.171-0.235-0.085    c-0.771,0.729-1.648,1.155-2.804,1.155c-2.526,0-4.281-2.011-4.281-4.923V19.654z M62.255,20.66c0,1.713,0.963,2.805,2.504,2.805    c0.75,0,1.413-0.278,1.969-0.75c0.171-0.127,0.278-0.342,0.278-0.577v-3.896c0-0.235-0.107-0.45-0.278-0.6    c-0.535-0.471-1.22-0.728-1.969-0.728c-1.541,0-2.504,1.092-2.504,2.804V20.66z"></path>			<path fill="#FFFFFF" d="M71.523,19.654c0-3.061,1.991-4.944,4.345-4.944c1.113,0,1.991,0.364,2.74,1.049    c0.085,0.085,0.235,0.042,0.235-0.107v-4.987c0-0.171,0.128-0.3,0.3-0.3h2.033c0.149,0,0.3,0.129,0.3,0.3v14.513    c0,0.172-0.15,0.3-0.3,0.3h-1.733c-0.129,0-0.257-0.064-0.279-0.192l-0.193-0.813c-0.021-0.086-0.128-0.129-0.213-0.043    c-0.75,0.793-1.777,1.22-2.933,1.22c-2.526,0-4.302-2.011-4.302-4.923V19.654z M74.092,20.66c0,1.713,0.963,2.805,2.504,2.805    c0.749,0,1.413-0.278,1.969-0.75c0.171-0.127,0.278-0.342,0.278-0.577v-3.896c0-0.235-0.107-0.45-0.278-0.6    c-0.514-0.471-1.22-0.728-1.969-0.728c-1.541,0-2.504,1.092-2.504,2.804V20.66z"></path>			<path fill="#FFFFFF" d="M83.36,19.611c0-2.953,2.055-4.965,4.987-4.965c2.868,0,4.902,1.969,4.902,4.965v1.006    c0,0.172-0.129,0.322-0.322,0.322h-6.785c-0.107,0-0.193,0.106-0.193,0.213c0.15,1.499,1.242,2.398,2.805,2.398    c0.706,0,1.306-0.215,1.841-0.664c0.106-0.107,0.299-0.107,0.407-0.021l1.413,1.092c0.15,0.128,0.128,0.342-0.021,0.471    c-0.963,0.856-2.205,1.284-3.639,1.284c-3.083,0-5.394-2.099-5.394-4.966V19.611z M85.971,19.012    c-0.021,0.15,0.086,0.236,0.214,0.236h4.238c0.171,0,0.235-0.107,0.214-0.236c-0.172-1.412-0.963-2.204-2.27-2.204    C86.999,16.808,86.164,17.557,85.971,19.012z"></path>			<path fill="#FFFFFF" d="M95.475,14.881h1.712c0.107,0,0.257,0.064,0.278,0.193l0.171,0.77c0.022,0.087,0.15,0.15,0.257,0.043    c0.707-0.771,1.691-1.177,2.804-1.177c1.413,0,2.548,0.599,3.125,1.733c0.064,0.107,0.192,0.129,0.257,0    c0.728-1.135,1.926-1.733,3.296-1.733c2.312,0,3.661,1.562,3.661,4.174v6.293c0,0.172-0.129,0.3-0.3,0.3h-2.034    c-0.171,0-0.299-0.128-0.299-0.3v-6.186c0-1.478-0.771-1.991-1.863-1.991c-0.813,0-1.498,0.343-1.904,0.941    c-0.15,0.15-0.278,0.386-0.278,0.621v6.614c0,0.172-0.128,0.3-0.3,0.3h-2.012c-0.149,0-0.3-0.128-0.3-0.3v-6.186    c0-1.499-0.813-1.991-1.862-1.991c-0.685,0-1.306,0.235-1.798,0.664c-0.192,0.128-0.3,0.363-0.3,0.6v6.913    c0,0.172-0.128,0.3-0.299,0.3h-2.012c-0.171,0-0.3-0.128-0.3-0.3v-9.996C95.175,15.01,95.304,14.881,95.475,14.881z"></path>			<path fill="#FFFFFF" d="M112.834,19.654c0-3.061,1.99-4.944,4.345-4.944c1.263,0,2.12,0.429,2.911,1.198    c0.064,0.064,0.193,0.043,0.215-0.043l0.171-0.749c0.042-0.149,0.192-0.235,0.343-0.235h1.669c0.15,0,0.3,0.129,0.3,0.3v9.996    c0,0.172-0.149,0.3-0.3,0.3h-2.033c-0.171,0-0.3-0.128-0.3-0.3v-0.6c0-0.106-0.149-0.171-0.236-0.085    c-0.77,0.729-1.647,1.155-2.803,1.155c-2.526,0-4.281-2.011-4.281-4.923V19.654z M115.402,20.66c0,1.713,0.963,2.805,2.504,2.805    c0.75,0,1.413-0.278,1.97-0.75c0.171-0.127,0.278-0.342,0.278-0.577v-3.896c0-0.235-0.107-0.45-0.278-0.6    c-0.535-0.471-1.22-0.728-1.97-0.728c-1.541,0-2.504,1.092-2.504,2.804V20.66z"></path>			<path fill="#FFFFFF" d="M125.42,14.881h1.713c0.128,0,0.256,0.086,0.277,0.193l0.172,0.685c0.021,0.085,0.15,0.128,0.235,0.042    c0.642-0.705,1.52-1.07,2.526-1.07c0.984,0,1.647,0.386,1.947,0.578c0.128,0.107,0.171,0.279,0.086,0.429l-0.899,1.413    c-0.086,0.149-0.257,0.171-0.429,0.085c-0.234-0.128-0.599-0.278-1.092-0.278c-0.728,0-1.412,0.257-1.947,0.75    c-0.172,0.148-0.277,0.428-0.277,0.664v6.806c0,0.172-0.129,0.3-0.301,0.3h-2.012c-0.172,0-0.3-0.128-0.3-0.3v-9.996    C125.12,15.01,125.248,14.881,125.42,14.881z"></path>			<path fill="#FFFFFF" d="M133.896,10.364h2.012c0.172,0,0.3,0.129,0.3,0.3v8.348c0,0.15,0.106,0.236,0.257,0.215    c1.947-0.3,3.146-1.777,3.339-3.725l0.021-0.343c0.021-0.214,0.192-0.278,0.3-0.278h2.098c0.172,0,0.321,0.129,0.3,0.322    l-0.064,0.428c-0.257,1.797-1.113,3.274-2.462,4.281c-0.086,0.063-0.106,0.191-0.043,0.277l3.104,4.816    c0.128,0.191-0.021,0.471-0.278,0.471h-2.248c-0.107,0-0.234-0.064-0.277-0.172l-2.419-4.131    c-0.064-0.106-0.171-0.17-0.321-0.128c-0.343,0.106-0.707,0.171-1.113,0.192c-0.107,0-0.192,0.106-0.192,0.214v3.725    c0,0.172-0.128,0.3-0.3,0.3h-2.012c-0.193,0-0.3-0.128-0.3-0.3V10.664C133.597,10.493,133.703,10.364,133.896,10.364z"></path>		</g>		<g>			<path fill="#FFFFFF" d="M146.006,10.365h1.35c0.127,0,0.234,0.106,0.234,0.235V17c0,0.107,0.086,0.193,0.215,0.193h7.576    c0.107,0,0.193-0.086,0.193-0.193v-6.399c0-0.129,0.107-0.235,0.235-0.235h1.37c0.129,0,0.236,0.106,0.236,0.235v14.642    c0,0.128-0.107,0.234-0.236,0.234h-1.37c-0.128,0-0.235-0.106-0.235-0.234v-6.337c0-0.106-0.086-0.192-0.193-0.192h-7.576    c-0.129,0-0.215,0.086-0.215,0.192v6.337c0,0.128-0.107,0.234-0.234,0.234h-1.371c-0.129,0-0.234-0.106-0.234-0.234V10.601    C145.75,10.472,145.855,10.365,146.006,10.365z"></path>			<path fill="#FFFFFF" d="M159.963,19.611c0-2.975,1.947-4.944,4.814-4.944c2.826,0,4.731,1.927,4.731,4.944v0.771    c0,0.149-0.107,0.257-0.257,0.257h-7.3c-0.106,0-0.192,0.085-0.192,0.171c0.021,2.098,1.37,3.361,3.404,3.361    c0.812,0,1.584-0.258,2.183-0.729c0.063-0.064,0.235-0.086,0.321,0.021l0.877,0.749c0.107,0.106,0.107,0.278,0,0.364    c-0.898,0.728-2.098,1.113-3.381,1.113c-3.041,0-5.201-2.033-5.201-4.944V19.611z M161.781,19.205    c0,0.107,0.086,0.193,0.192,0.193h5.522c0.107,0,0.193-0.086,0.193-0.193c-0.129-1.904-1.178-3.018-2.89-3.018    C163.022,16.188,161.91,17.301,161.781,19.205z"></path>			<path fill="#FFFFFF" d="M171.906,10.365h1.348c0.129,0,0.236,0.106,0.236,0.235v14.642c0,0.128-0.107,0.234-0.236,0.234h-1.348    c-0.15,0-0.258-0.106-0.258-0.234V10.601C171.648,10.472,171.756,10.365,171.906,10.365z"></path>			<path fill="#FFFFFF" d="M176.336,14.882h1.178c0.106,0,0.192,0.063,0.235,0.171l0.086,0.941c0.021,0.107,0.128,0.129,0.192,0.064    c0.792-0.92,1.926-1.326,3.104-1.326c2.482,0,4.494,1.99,4.494,4.922v1.07c0,3.062-1.969,4.902-4.473,4.902    c-1.221,0-2.291-0.428-3.039-1.242c-0.064-0.064-0.172-0.021-0.172,0.087v5.308c0,0.129-0.106,0.234-0.258,0.234h-1.348    c-0.129,0-0.234-0.105-0.234-0.234V15.117C176.102,14.988,176.207,14.882,176.336,14.882z M178.178,17.343    c-0.15,0.149-0.236,0.343-0.236,0.557v4.581c0,0.193,0.086,0.406,0.236,0.535c0.662,0.729,1.562,1.092,2.61,1.092    c1.819,0,3.062-1.371,3.062-3.446v-0.964c0-2.055-1.242-3.425-3.062-3.425C179.74,16.272,178.798,16.637,178.178,17.343z"></path>			<path fill="#FFFFFF" d="M188.023,10.365h1.349c0.128,0,0.235,0.106,0.235,0.235v14.642c0,0.128-0.107,0.234-0.235,0.234h-1.349    c-0.15,0-0.258-0.106-0.258-0.234V10.601C187.766,10.472,187.873,10.365,188.023,10.365z"></path>			<path fill="#FFFFFF" d="M193.139,10.985c0.578,0,1.027,0.45,1.027,1.028c0,0.577-0.449,1.005-1.027,1.005    s-1.027-0.428-1.027-1.005C192.111,11.436,192.561,10.985,193.139,10.985z M192.453,14.882h1.349    c0.151,0,0.257,0.106,0.257,0.235v10.125c0,0.128-0.105,0.234-0.257,0.234h-1.349c-0.127,0-0.234-0.106-0.234-0.234V15.117    C192.219,14.988,192.326,14.882,192.453,14.882z"></path>			<path fill="#FFFFFF" d="M196.928,14.882h1.155c0.129,0,0.215,0.063,0.235,0.171l0.107,1.07c0.021,0.086,0.129,0.107,0.192,0.043    c0.835-0.941,2.013-1.434,3.339-1.434c2.355,0,3.66,1.455,3.66,4.151v6.358c0,0.128-0.105,0.234-0.234,0.234h-1.35    c-0.128,0-0.234-0.106-0.234-0.234v-6.295c0-1.861-0.92-2.632-2.376-2.632c-1.007,0-1.991,0.407-2.654,1.113    c-0.171,0.149-0.257,0.343-0.257,0.578v7.235c0,0.128-0.107,0.234-0.236,0.234h-1.348c-0.15,0-0.257-0.106-0.257-0.234V15.117    C196.671,14.988,196.777,14.882,196.928,14.882z"></path>			<path fill="#FFFFFF" d="M207.65,19.611c0-2.975,1.949-4.944,4.816-4.944c2.826,0,4.73,1.927,4.73,4.944v0.771    c0,0.149-0.106,0.257-0.256,0.257h-7.3c-0.106,0-0.192,0.085-0.192,0.171c0.021,2.098,1.37,3.361,3.402,3.361    c0.814,0,1.585-0.258,2.185-0.729c0.063-0.064,0.235-0.086,0.32,0.021l0.878,0.749c0.107,0.106,0.107,0.278,0,0.364    c-0.898,0.728-2.098,1.113-3.383,1.113c-3.039,0-5.201-2.033-5.201-4.944V19.611z M209.471,19.205    c0,0.107,0.086,0.193,0.192,0.193h5.522c0.107,0,0.193-0.086,0.193-0.193c-0.129-1.904-1.178-3.018-2.891-3.018    C210.712,16.188,209.6,17.301,209.471,19.205z"></path>		</g>	</g>	<path fill="#FFFFFF" d="M222.5,16.303c0,1.002-0.732,1.71-1.702,1.71c-0.979,0-1.711-0.708-1.711-1.71s0.732-1.711,1.711-1.711  C221.768,14.592,222.5,15.301,222.5,16.303z M219.326,16.303c0,0.866,0.629,1.471,1.472,1.471c0.835,0,1.463-0.604,1.463-1.471  c0-0.867-0.628-1.472-1.463-1.472C219.955,14.831,219.326,15.436,219.326,16.303z M220.098,15.189h0.826  c0.383,0,0.661,0.262,0.661,0.659v0.017c0,0.317-0.215,0.523-0.445,0.611c-0.04,0.009-0.056,0.049-0.04,0.08  c0.08,0.311,0.277,0.502,0.572,0.509c0.048,0,0.08,0.032,0.08,0.079v0.16c0,0.047-0.039,0.078-0.08,0.078  c-0.477,0-0.811-0.301-0.914-0.795c-0.008-0.047-0.024-0.071-0.072-0.071h-0.254c-0.04,0-0.062,0.024-0.062,0.071v0.701  c0,0.047-0.033,0.072-0.08,0.072h-0.191c-0.056,0-0.08-0.025-0.08-0.072v-2.028C220.018,15.221,220.05,15.189,220.098,15.189z   M220.369,16.158c0,0.041,0.022,0.064,0.062,0.064h0.422c0.215,0,0.365-0.127,0.365-0.351v-0.016c0-0.222-0.15-0.35-0.389-0.35  h-0.398c-0.04,0-0.062,0.024-0.062,0.063V16.158z"></path>	<path fill="#FFFFFF" d="M15.18,25.461l-1.669-1.67c-0.082-0.082-0.082-0.217,0-0.3l2.267-2.304  c0.082-0.082,0.216-0.084,0.298-0.002l1.669,1.67c0.082,0.083,0.083,0.215,0.001,0.301l-2.267,2.303  C15.396,25.543,15.262,25.543,15.18,25.461z"></path>	<path fill="#FFFFFF" d="M28.666,20.87l-1.425,1.425c-0.082,0.08-0.149,0.15-0.147,0.15c0.001,0.001-0.065,0.069-0.147,0.152  l-7.194,7.152c-0.084,0.081-0.217,0.081-0.3-0.001l-1.673-1.674c-0.083-0.082-0.082-0.217,0-0.297l7.195-7.153  c0.082-0.081,0.082-0.217,0-0.297l-2.172-2.172l-0.029-0.03l-2.988,3.021c-0.083,0.082-0.217,0.082-0.299,0l-1.669-1.668  c-0.082-0.083-0.082-0.217-0.002-0.299l2.989-3.021l-2.185-2.187c-0.083-0.081-0.217-0.081-0.3,0l-7.174,7.175  c-0.082,0.082-0.216,0.082-0.298,0l-1.673-1.673c-0.082-0.082-0.082-0.217,0-0.298l7.174-7.174c0.082-0.084,0.082-0.218,0-0.301  l-2.39-2.389c-0.083-0.082-0.083-0.217,0-0.301l1.424-1.424c0.082-0.08,0.216-0.08,0.298,0l4.594,4.598  c0.004,0,0.004,0.001,0.004,0.001l6.772,6.772l1.612,1.611C28.749,20.652,28.749,20.787,28.666,20.87z"></path></g></svg>